<svg width="36" height="36" viewBox="0 0 36 36" fill="none" xmlns="http://www.w3.org/2000/svg">
<path d="M28.5 4.5H7.5C5.85 4.5 4.5 5.85 4.5 7.5V28.5C4.5 30.15 5.85 31.5 7.5 31.5H28.5C30.15 31.5 31.5 30.15 31.5 28.5V7.5C31.5 5.85 30.15 4.5 28.5 4.5ZM16.065 24.435C15.48 25.02 14.535 25.02 13.95 24.435L8.565 19.05C7.98 18.465 7.98 17.52 8.565 16.935C9.15 16.35 10.095 16.35 10.68 16.935L15 21.255L25.32 10.935C25.905 10.35 26.85 10.35 27.435 10.935C28.02 11.52 28.02 12.465 27.435 13.05L16.065 24.435Z" fill="#5A995C"/>
</svg>
