<svg width="82" height="52" viewBox="0 0 82 52" fill="none" xmlns="http://www.w3.org/2000/svg">
<g clip-path="url(#clip0_223_4101)">
<path d="M33.238 34.3836V33.8094H35.7211V34.3836C35.7211 35.18 36.1348 35.754 37.0755 35.754C37.9031 35.754 38.4486 35.2541 38.4486 34.3836C38.4486 33.2724 37.9972 32.9946 36.2101 32.1428C33.9529 31.0687 33.2945 29.9574 33.2945 28.1426C33.2945 26.0313 34.6489 24.6053 37.1883 24.6053C39.7279 24.6053 40.988 26.0313 40.988 28.1795V28.5499H38.5049V28.198C38.5049 27.3832 38.1288 26.7905 37.2069 26.7905C36.398 26.7905 35.9278 27.3091 35.9278 28.1054C35.9278 29.1054 36.4358 29.4019 38.2038 30.2352C40.5176 31.3278 41.0819 32.476 41.0819 34.328C41.0819 36.5134 39.6898 37.9394 37.1128 37.9394C34.5359 37.9394 33.238 36.5134 33.238 34.3836Z" fill="black"/>
<path d="M47.1248 35.4021H44.1715L43.7388 37.754H41.2369L43.9644 24.7903H47.5197L50.2472 37.754H47.5573L47.1248 35.4021ZM46.7109 33.1798L45.6387 27.383L44.5854 33.1798H46.7109Z" fill="black"/>
<path d="M51.0067 24.7903H57.9666V27.0496H53.6402V30.1424H57.0262V32.4019H53.6402V37.754H51.0067V24.7903Z" fill="black"/>
<path d="M58.7189 24.7903H65.8858V27.0496H61.3523V30.0498H64.9639V32.3091H61.3523V35.4945H65.8858V37.7538H58.7189V24.7903Z" fill="black"/>
<path d="M32.1759 38.8457H36.0698C38.7033 38.8457 39.9636 39.9014 39.9636 42.1422V42.6423C39.9636 44.0129 39.4181 44.8647 38.2518 45.3091V45.3647C39.4557 45.6797 39.9826 46.6425 39.9826 48.4945V50.0131C39.9826 50.7354 40.0201 51.2539 40.2835 51.8095H37.5935C37.443 51.4576 37.3677 51.2724 37.3677 49.9946V48.3093C37.3677 47.0685 36.935 46.6241 35.7124 46.6241H34.8095V51.8095H32.1761V38.8457H32.1759ZM35.7688 44.3647C36.8598 44.3647 37.3302 43.9203 37.3302 42.9203V42.4203C37.3302 41.5129 36.9352 41.1054 36.0511 41.1054H34.8095V44.3649H35.7688V44.3647Z" fill="black"/>
<path d="M41.0356 38.8457H48.2026V41.105H43.6691V44.1053H47.2807V46.3646H43.6691V49.55H48.2026V51.8093H41.0356V38.8457Z" fill="black"/>
<path d="M48.9783 38.8457H55.9382V41.105H51.6117V44.1979H54.9977V46.4574H51.6117V51.8095H48.9783V38.8457Z" fill="black"/>
<path d="M56.7234 48.2539V38.8459H59.3568V48.4021C59.3568 49.2911 59.8083 49.7355 60.6924 49.7355C61.5766 49.7355 62.028 49.2911 62.028 48.4021V38.8459H64.5676V48.2539C64.5676 50.6058 63.2132 51.9948 60.6361 51.9948C58.0592 51.9948 56.7234 50.6058 56.7234 48.2539Z" fill="black"/>
<path d="M65.3292 48.2909V42.4015C65.3292 40.0496 66.7776 38.6606 69.2418 38.6606C71.7059 38.6606 73.1543 40.0496 73.1543 42.4015V43.1424H70.6712V42.3089C70.6712 41.4384 70.201 40.92 69.3169 40.92C68.4327 40.92 67.9625 41.4386 67.9625 42.3089V48.3463C67.9625 49.2168 68.4327 49.7352 69.3169 49.7352C70.201 49.7352 70.6712 49.2166 70.6712 48.3463V46.7536H69.3732V44.4017H73.1541V48.2909C73.1541 50.6243 71.7057 51.9948 69.2416 51.9948C66.7776 51.9948 65.3292 50.6243 65.3292 48.2909Z" fill="black"/>
<path d="M73.9137 38.8457H81.0806V41.105H76.5471V44.1053H80.1588V46.3646H76.5471V49.55H81.0806V51.8093H73.9137V38.8457Z" fill="black"/>
<path d="M0.00145521 16.9232C-0.0239966 15.8528 0.240449 14.7529 0.526376 13.7497C1.00328 12.0758 1.90059 10.4854 2.89827 9.01656C3.69269 7.847 4.58892 6.7345 5.50915 5.64473C6.40195 4.58732 7.41208 3.60508 8.55362 2.75985C9.38234 2.1462 10.2804 1.60612 11.2394 1.17C14.0286 -0.0987243 17.4321 -0.438875 20.3087 0.662082C22.0826 1.34096 23.576 2.52385 24.761 3.88854C26.8087 6.24666 27.8221 9.12603 28.8116 11.9434C29.8293 14.8405 30.6104 17.8203 30.873 20.8545C30.9718 21.9943 31.0249 23.1495 31.001 24.2913C30.9676 25.8958 30.7756 27.4819 30.3943 29.051C30.3593 29.1954 30.2671 29.3765 30.1041 29.3556C30.0124 29.3438 29.9497 29.2681 29.9008 29.1976C28.9647 27.8473 28.8145 25.9166 28.6548 24.3699C28.4658 22.5407 28.1237 20.7258 27.9385 18.8941C27.9221 18.7311 27.9046 18.563 27.8188 18.4185C27.7333 18.274 27.5607 18.1578 27.3797 18.1781C27.2147 18.1965 27.0851 18.3234 27.0287 18.4638C26.9724 18.6042 26.9753 18.7572 26.9789 18.9065C27.0298 21.0057 27.015 23.1184 27.1253 25.2135C27.2268 27.1428 28.0492 29.068 29.0039 30.7759C29.2403 31.199 29.3458 31.4562 29.5813 31.8788C29.9286 32.4203 30.2756 32.7553 30.7276 33.2303C32.1478 34.7232 31.4175 35.9284 29.6633 34.9481C28.4165 34.2513 27.6479 33.5847 26.8338 32.4976C26.024 31.4164 25.2567 30.2102 24.763 28.9877C23.9798 27.0484 23.7245 24.9807 23.4749 22.9428C23.2729 21.294 23.027 19.6583 22.9171 18.0041C22.801 16.26 22.5759 14.5119 22.0487 12.8256C21.4905 11.0406 20.6523 9.12461 19.152 7.80151C17.1755 6.05828 14.5924 6.59836 12.6539 8.14539C11.617 8.97249 10.8232 10.0166 10.1445 11.1019C10.0163 11.3068 9.88831 11.5176 9.6957 11.677C9.5031 11.8362 9.22909 11.9373 8.97619 11.876C8.5094 11.7628 8.39243 11.2131 8.45561 10.7832C8.72186 8.97231 10.4378 7.60549 11.6636 6.2639C11.8059 6.10804 11.9055 5.77091 11.2925 5.98773C10.4937 6.27012 10.2405 6.46863 9.52891 6.8964C8.77294 7.351 8.05379 7.86904 7.48555 8.51167C6.04202 10.1444 5.71223 12.4559 6.4978 14.3987C6.58102 14.6043 6.74492 14.8444 6.98662 14.8149C7.0998 14.8011 7.19168 14.7279 7.26894 14.6525C7.66949 14.2619 7.87635 13.7314 8.30109 13.3621C8.39116 13.2837 8.50543 13.2094 8.62998 13.2231C8.79442 13.2413 8.88811 13.3985 8.94063 13.5395C9.67819 15.5155 8.35344 17.6255 7.44385 19.3616C6.42109 21.314 5.88515 23.4712 5.89526 25.6287C5.89797 26.1869 5.93624 26.7465 5.88136 27.3026C5.8662 27.4563 5.83335 27.6267 5.69598 27.7197C4.98622 28.2002 3.9223 25.4493 3.78637 25.0642C3.35496 23.8408 3.06524 22.5556 2.33652 21.4356C1.75077 20.5351 0.897142 19.7773 0.433053 18.8212C0.140447 18.2187 0.016979 17.5765 0.00145521 16.9232ZM5.9505 17.0041C5.71656 16.9326 5.51312 17.0492 5.3855 17.2226C5.30789 17.328 5.26023 17.4487 5.22287 17.5704C5.12449 17.8903 5.09254 18.2324 5.18225 18.5543C5.20752 18.6449 5.2429 18.7348 5.30373 18.8107C5.36438 18.8866 5.45301 18.9477 5.55536 18.9652C5.76457 19.0009 5.89959 18.8319 6.00212 18.6975C6.10339 18.5646 6.20466 18.4317 6.3061 18.2987C6.42054 18.1487 6.53643 17.9955 6.59546 17.8217C6.6543 17.6477 6.64835 17.4466 6.53065 17.2985C6.396 17.1295 6.15899 17.0679 5.9505 17.0041Z" fill="black"/>
<path d="M28.9548 45.0676C28.8003 46.2096 28.6909 47.3534 28.7232 48.5022C28.7425 49.1848 28.8107 49.8784 28.6517 50.5431C28.5737 50.8688 28.4201 51.2061 28.1206 51.3645C27.9159 51.4727 27.6737 51.4807 27.4414 51.4862C25.0274 51.5431 22.6131 51.5779 20.1985 51.5904C19.1892 51.5955 18.1798 51.6019 17.1706 51.5984C15.9825 51.5984 14.7971 51.6019 13.6097 51.6492C12.8824 51.6782 12.1555 51.718 11.4293 51.7674C10.2923 51.8445 9.15363 51.9655 8.01336 51.9892C7.4054 52.0016 6.53481 52.0629 6.0218 51.6668C5.11167 50.9502 5.41041 49.5333 5.44742 48.5464C5.46926 47.9676 5.52991 46.6996 5.40067 46.1341C5.09181 44.7829 4.68134 44.1554 4.10389 42.8671C3.65406 41.8639 3.23058 40.8019 3.27878 39.7061C3.34322 38.2442 4.19414 37.285 4.55444 35.8658C4.61798 35.6159 4.64632 35.4128 4.6391 35.2617C4.17753 25.5941 14.4622 28.5637 13.3396 33.7575C13.3351 33.7783 13.3294 33.7989 13.322 33.819C13.1821 34.1977 12.8236 34.0006 12.7304 33.6255C12.3465 32.0777 10.6699 31.8119 10.4991 33.7829C10.4336 34.5404 11.1096 35.1478 10.797 35.6276C10.3298 36.3449 10.2815 36.6532 9.87368 36.6819C9.33559 36.7197 8.6798 36.199 8.51048 35.7201C8.27527 35.0545 9.38234 33.5061 8.39405 32.4758C8.1296 32.2002 7.63248 32.1947 7.08518 32.3662C5.88714 32.7417 5.73713 33.6358 5.72396 36.2987C5.718 37.5113 5.36276 37.7913 5.10445 38.4903C4.79434 39.3298 4.63224 40.246 4.87177 41.1147C5.07232 41.8422 5.27413 42.3979 5.63352 43.0635C6.33697 44.3665 6.65936 45.5197 6.71225 46.9674C6.74004 47.7305 6.58535 48.7794 6.72687 49.44C6.8108 49.8317 7.12994 50.1361 7.4036 50.4313C8.54712 51.6643 11.4661 50.8335 12.7839 50.5658C13.4741 50.4256 14.2662 50.1892 14.6207 49.5368C14.8023 49.2029 14.8743 48.8221 14.9106 48.4449C15.0005 47.5032 14.8348 46.5501 14.8281 45.6013C14.8213 44.6235 14.9059 43.6374 15.1926 42.6972C15.4169 41.9613 15.765 41.2455 15.7895 40.4775C15.794 40.338 15.7762 40.1767 15.6585 40.0988C15.45 39.9609 15.2041 40.2119 15.0853 40.4297C14.4574 41.5817 13.6187 42.6887 13.4821 43.9892C13.3492 45.2528 13.9017 45.9788 13.8492 47.248C13.8436 47.3836 13.829 47.5317 13.7324 47.6285C13.5312 47.8304 13.1877 47.6527 12.9747 47.4629C12.1508 46.7291 11.7896 46.53 11.2196 45.4015C10.4946 43.9661 11.7492 42.3944 11.8107 41.4688C11.9326 39.6364 11.1845 38.9289 11.6378 37.1477C11.7636 36.6532 11.9398 36.1604 12.2577 35.7581C12.5755 35.3557 13.0541 35.0527 13.5716 35.0412C14.1823 35.0277 14.7319 35.4105 15.1447 35.8535C15.729 36.4805 16.1319 37.2466 16.5274 38.0034C17.0986 39.0963 17.6702 40.1946 18.076 41.3569C18.4816 42.5193 18.7183 43.7562 18.5982 44.9796C18.4914 46.0667 18.115 47.1083 18.0841 48.2059C18.0805 48.3312 18.0818 48.4602 18.1293 48.5765C18.2119 48.7791 18.411 48.8283 18.6118 48.8448C19.9835 48.8448 21.3333 49.368 22.709 49.1523C24.1065 48.9322 25.2511 47.886 25.9522 46.6756C26.6531 45.4652 26.986 44.0887 27.3569 42.7441C27.8019 41.1315 28.3131 39.5365 28.8889 37.9646C28.9394 37.8265 28.9943 37.6829 29.1039 37.5836C29.2134 37.4843 29.3958 37.4459 29.5113 37.5386C29.6089 37.617 29.6266 37.7549 29.6353 37.8788C29.8028 40.2842 29.2791 42.6716 28.9548 45.0676Z" fill="black"/>
<path d="M11.8739 33.6278C12.136 33.6289 12.3053 33.905 12.1786 34.1309C11.9714 34.5006 11.3235 34.8206 11.1683 34.3587C11.0425 33.9839 11.4825 33.6264 11.8739 33.6278Z" fill="black"/>
<path d="M7.29436 33.6667C6.87305 33.4853 6.49145 33.9882 6.78911 34.3333C7.03171 34.6148 7.4588 34.7817 7.7088 34.4385C7.93498 34.1769 7.64852 33.8192 7.29436 33.6667Z" fill="black"/>
</g>
<defs>
<clipPath id="clip0_223_4101">
<rect width="81.0847" height="52" fill="white"/>
</clipPath>
</defs>
</svg>
